<?xml version="1.0" encoding="utf-8"?>
<!-- Generator: Adobe Illustrator 25.4.1, SVG Export Plug-In . SVG Version: 6.00 Build 0)  -->
<svg version="1.0" id="layer" xmlns="http://www.w3.org/2000/svg" xmlns:xlink="http://www.w3.org/1999/xlink" x="0px" y="0px"
	 viewBox="0 0 417.5 126.7" enable-background="new 0 0 417.5 126.7" xml:space="preserve">
<path fill="#A054A0" d="M207.4,34.8c2.4,0.1,4.5,1.5,5.4,3.7l13.7,23l13.7-23c0.9-2.2,3.1-3.7,5.4-3.7c3.1-0.2,5.8,2,6.2,5.1
	c0-0.2,0-0.4,0-0.7c-0.1-1.5-0.7-3-1.9-4.1c-1.2-1.1-2.7-1.6-4.3-1.5c-2.4,0.1-4.5,1.5-5.4,3.7l-13.7,23l-13.7-23
	c-0.9-2.2-3.1-3.7-5.4-3.7c-1.5-0.1-3.1,0.4-4.3,1.5c-1.2,1.1-1.9,2.5-1.9,4.1c0,0.2,0,0.4,0,0.7C201.6,36.9,204.3,34.6,207.4,34.8z
	"/>
<path fill="#A054A0" d="M175,58.5c-4,0.7-6.6,2.4-6.6,6.3c0,0.2,0,0.4,0,0.6c0.2-3.5,2.7-5,6.6-5.7c1.7-0.1,3.3-0.8,4.5-2.1
	s1.8-3,1.7-4.7c0-0.2,0-0.4,0-0.6C181,55.7,178.3,58.4,175,58.5z"/>
<path fill="#813588" d="M395.5,99.6c-8,0.2-15.7-3.2-20.9-9.3c-1.4-1.5-2.2-3.5-2.3-5.5c-0.1-1.7,0.6-3.5,1.9-4.7
	c1.1-0.9,2.5-1.4,3.9-1.4c2.4,0.4,4.4,1.7,5.8,3.6c2.9,3.3,7.1,5.3,11.6,5.4c5.7,0,9-2.5,9-6.9c0-5.7-5.8-8.1-12.4-10.9
	c-8.3-3.5-17.6-7.4-17.6-18.9c-0.2-5.3,2-10.4,6-13.8c3.8-2.9,8.5-4.5,13.3-4.4c4.6-0.1,9.3,1.1,13.3,3.3c3.8,2.2,8.3,6.4,8.3,10.9
	c0,1.4-0.6,2.8-1.7,3.7s-2.6,1.4-4.1,1.4c-2.3-0.2-4.5-1.4-5.8-3.3c-0.6-0.6-1.2-1.2-1.9-1.7c-2.4-1.7-5.2-2.7-8.1-2.5
	c-4.5,0-7.1,2.2-7.1,6.2c0,4,4.9,6.2,10.6,8.6c8.7,3.7,19.5,8.4,19.5,22c0.1,5.2-2.2,10.2-6.3,13.5C406.1,98,400.8,99.7,395.5,99.6z
	 M171.4,99.1h-0.6l-17-0.2c-1.7,0.1-3.3-0.5-4.5-1.7s-1.8-2.8-1.7-4.5v-54c-0.1-1.7,0.6-3.3,1.7-4.5s2.8-1.8,4.5-1.7h17.1
	c6.1-0.4,12.1,1.4,16.9,5.1c3.7,3.3,5.8,8.1,5.6,13.1c-0.1,5.5-3,10.6-7.8,13.4c-0.1,0-0.1,0.1-0.1,0.1s0,0.1,0.1,0.1
	c3.3,1.3,6.1,3.5,8.2,6.3c2,2.8,3,6.3,3,9.7c0.2,5-1.8,9.8-5.5,13.1C187,97.3,180.3,99.1,171.4,99.1z M159.9,44.1v43.4h12.6
	c7.7,0,11.7-2.6,11.7-7.6c0-5.4-2.5-7.7-9.3-8.5c-4.3-0.6-6.5-2.8-6.5-6.6c0-3.5,2-5.4,6.6-6.3c1.7-0.1,3.3-0.8,4.5-2.1
	c1.2-1.3,1.8-3,1.7-4.7c0.2-2.1-0.5-4.2-2-5.7s-3.6-2.2-5.7-2L159.9,44.1L159.9,44.1L159.9,44.1z M226.5,98.9
	c-1.8-0.1-3.4-0.9-4.6-2.2c-1.2-1.4-1.7-3.1-1.5-4.9V72.8l-17.7-28.5c-1.1-1.5-1.6-3.2-1.6-5.1c0-1.5,0.7-3,1.8-4
	c1.2-1.1,2.8-1.6,4.5-1.6c2.4,0.1,4.5,1.5,5.4,3.7l13.7,23l13.7-23c0.9-2.2,3.1-3.7,5.4-3.7c1.6,0,3.2,0.6,4.5,1.6
	c1.2,1,1.8,2.5,1.8,4c0,1.8-0.6,3.6-1.6,5.1l-17.7,28.5v19.1C232.8,96.2,230.3,98.9,226.5,98.9z M266.2,98.7
	c-5.8,0.2-11.3-2-15.2-6.3c-2.7-3-4.2-6.7-4.4-10.8c-0.1-1.7,0.6-3.3,1.7-4.5c1.2-1.2,2.8-1.9,4.5-1.8c0.2,0,0.4,0,0.5,0
	c3.3,0.2,4.2,2.7,5.2,5.2c1.2,3,2.4,6.2,7.8,6.2h0.2c2.5,0.2,5-0.9,6.6-2.9c1.6-2.6,2.3-5.6,2.1-8.7V40.8c0-4.5,2.3-7.1,6.1-7.1
	c3.7,0,6.1,2.8,6.1,7.1v34.2C287.5,90.5,280.2,98.7,266.2,98.7L266.2,98.7z M323.8,98.6c-6.6,0.4-12.9-2.1-17.5-6.8
	c-4.1-4.6-6.3-11.5-6.3-20.4V40.8c-0.1-1.9,0.5-3.8,1.7-5.3c1.1-1.2,2.8-1.9,4.5-1.9c3.7,0,6.1,2.8,6.1,7.1v29.6
	c0,5.9,0.9,10,2.9,12.6c2.1,2.5,5.3,3.8,8.5,3.5c3.2,0.3,6.4-1,8.5-3.5c2-2.5,2.9-6.6,2.9-12.6V40.8c0-4.3,2.4-7.1,6.1-7.1
	c1.7-0.1,3.3,0.6,4.5,1.9c1.2,1.5,1.8,3.3,1.7,5.3v30.6c0,8.9-2.1,15.8-6.3,20.4C336.7,96.5,330.4,99,323.8,98.6L323.8,98.6z
	 M360.9,56.4c-3.4,0-5.2-3.3-5.2-9.5V42c0-5.6,2-8.4,6.4-8.5c1.8-0.1,3.6,0.5,4.8,1.8c1.1,1.4,1.6,3.2,1.5,4.9
	c-0.4,4.6-1.5,9-3.2,13.2C364.5,55.2,362.8,56.4,360.9,56.4z"/>
<path fill="#A054A0" d="M312.4,71.6c0,12.2,4,16,11.4,16c7.6,0,11.4-3.8,11.4-16v-1.2c0,12.2-4,16-11.4,16c-7.6,0-11.4-3.8-11.4-16
	V71.6z"/>
<path fill="#A054A0" d="M386.6,51.2c0,0.2,0,0.4,0,0.6c0,10,29.5,7.9,30.1,30c0-0.2,0-0.3,0-0.5C416.6,59,387.5,60.8,386.6,51.2z"/>
<path fill="#A054A0" d="M378.1,79.8c2.4,0.4,4.4,1.7,5.8,3.6c2.9,3.3,7.1,5.3,11.6,5.4c5.4,0,9-2.3,9-6.9c0-0.2,0-0.4,0-0.6
	c-0.2,4.3-3.8,6.4-9,6.4c-4.5-0.1-8.6-2-11.6-5.4c-1.3-2-3.4-3.3-5.8-3.6c-1.6-0.1-3.2,0.6-4.3,1.7c-1.1,1.2-1.7,2.7-1.5,4.3
	c0,0.2,0,0.3,0,0.5c0-1.5,0.7-2.9,1.7-4C375.2,80.3,376.6,79.7,378.1,79.8z"/>
<path fill="#A054A0" d="M246.6,81.6c0,0.2,0,0.4,0,0.7c0.1-1.7,0.8-3.2,2-4.3c1.2-1.1,2.9-1.6,4.6-1.4c7.4,0.6,2.9,11.6,13.2,11.4
	c6.1-0.1,8.7-3.8,8.7-11.6v-1.2c0,7.8-2.7,11.5-8.7,11.6c-10.3,0.2-5.9-10.8-13.2-11.4c-1.7-0.2-3.5,0.4-4.8,1.6
	C247.2,78.2,246.5,79.9,246.6,81.6z"/>
<path fill="#A054A0" d="M172.5,88.6c7.7,0,11.7-2.7,11.7-7.6c0-0.2,0-0.5,0-0.7c-0.2,4.6-4.2,7.1-11.7,7.1h-12.6v1.2L172.5,88.6
	L172.5,88.6z"/>
<path fill="#A054A0" d="M185.7,64.5c-0.1,0-0.1-0.1-0.1-0.1c0-0.1,0-0.1,0.1-0.1l0,0c-0.2,0.1-0.4,0.3-0.7,0.6
	c-0.1,0.1-0.1,0.2-0.1,0.3s0.1,0.2,0.2,0.3l0.6,0.2c6.6,2.4,11,8.6,11.1,15.7c0-0.2,0-0.5,0-0.7c0-1.9-0.3-3.7-0.9-5.5
	C194.2,70.2,190.4,66.3,185.7,64.5z"/>
<path fill="#813588" d="M117.8,0c2.3,0,4.4,0.9,6,2.5s2.5,3.8,2.5,6v109.7c0,2.3-0.9,4.4-2.5,6s-3.8,2.5-6,2.5H8.5
	c-2.3,0-4.4-0.9-6-2.5s-2.5-3.8-2.5-6V8.5c0-2.3,0.9-4.4,2.5-6S6.3,0,8.5,0H117.8z"/>
<path fill="#4B205A" d="M83.1,98.3L83.1,98.3l-26.2,7.6c-2.2,0.6-4.5-0.6-5.2-2.8l-19.8-69c-0.6-2.2,0.6-4.6,2.9-5.2L61.9,21
	c6.3-1.9,13,0,17.4,4.9c3.6,3.7,5.4,8.7,5.2,13.9c-0.2,5.1-2.6,10-6.4,13.3c11.2,0.7,20.3,9.3,21.5,20.5
	C100.8,84.7,93.8,95.1,83.1,98.3"/>
<path fill="#FEFEFE" d="M55.1,111.3c-3.7,0-7-2.5-8-6.1L26.8,34.5c-1.3-4.5,1.3-9.1,5.7-10.4L60.4,16c1.7-0.5,3.5-0.7,5.4-0.7
	c7,0,13.7,3,18.4,8.3c3.1,3.8,4.9,8.5,5.4,13.4c0.4,4.4-0.5,8.9-2.6,12.8c5.6,2.2,10.4,6.2,13.6,11.4c3.5,5.7,4.9,12.4,4.1,19.1
	c-0.7,5.2-3,10-6.5,13.9c-3.3,4.1-7.7,7.1-12.7,8.7L57.4,111C56.6,111.2,55.8,111.3,55.1,111.3z M66.7,20.2c-1.6,0-3.3,0.2-4.8,0.7
	l-27.2,7.9c-2.2,0.7-3.5,3-2.9,5.2l19.8,69c0.3,1.1,1,2,2,2.5s2.1,0.7,3.2,0.4L83,98.3c10.8-3.1,17.7-13.6,16.5-24.7
	C98.3,62.4,89.2,53.8,78,53.1c3.8-3.2,6.1-7.9,6.4-12.8c0.3-5.3-1.6-10.5-5.2-14.4C76,22.2,71.4,20.2,66.7,20.2z"/>
<path fill="#813588" d="M91.2,79.9c0-11.7-9.3-21.1-21-21.3c3.7-3.2,5.9-7.8,6.2-12.7c0.3-4.9-1.5-9.7-4.8-13.3
	c-4.2-4.9-10.9-6.8-17.1-5l-22.7,6.6L51.6,103c0.3,1.1,1,2,2,2.5s2.1,0.7,3.2,0.4l18.6-5.4l0.3-0.1C84.9,97.8,91.2,89.4,91.2,79.9"
	/>
<path fill="#813588" d="M396.2,100.4L396.2,100.4c-8.1,0.2-15.8-3.2-20.9-9.5c-1.4-1.5-2.2-3.5-2.3-5.5c-0.1-1.7,0.6-3.5,1.9-4.7
	c1.1-0.9,2.5-1.4,4-1.4l0,0c2.4,0.4,4.4,1.7,5.8,3.7c4.9,4.8,8.6,5.4,11.6,5.4h0.1c5.7,0,9-2.5,9-6.9c0-5.7-5.8-8.2-12.4-11
	C384.4,67,375,63,375,51.5c-0.2-5.3,2-10.4,6.1-13.8c3.8-2.9,8.5-4.4,13.4-4.3c4.7-0.1,9.3,1.1,13.4,3.4c3.8,2.2,8.3,6.4,8.3,11
	c0,1.4-0.6,2.8-1.7,3.7c-1.2,0.9-2.6,1.4-4.1,1.4l0,0c-2.3-0.2-4.5-1.4-5.8-3.3c-0.6-0.6-1.2-1.2-1.9-1.7c-2.4-1.8-5.2-2.7-8.1-2.5
	h-0.1c-4.5,0-7.1,2.2-7.1,6.2c0,4.1,4.9,6.2,10.6,8.7c8.7,3.8,19.5,8.5,19.5,22.2c0.1,5.2-2.2,10.2-6.3,13.4
	C406.8,98.9,401.5,100.6,396.2,100.4z M171.7,99.3L171.7,99.3h-0.8l-17.1-0.2c-1.7,0.1-3.3-0.6-4.5-1.7c-1.1-1.2-1.7-2.8-1.7-4.5
	l0.1-54.2c-0.1-1.7,0.6-3.3,1.7-4.5s2.8-1.8,4.5-1.7l0,0l17.1,0.1c6.1-0.4,12.1,1.5,16.9,5.1c3.7,3.3,5.8,8.2,5.6,13.1
	c-0.1,5.5-3,10.6-7.9,13.4c-0.1,0.1-0.1,0.1-0.1,0.1s0,0.1,0.1,0.1c3.3,1.3,6.1,3.5,8.2,6.4c2,2.8,3,6.3,3,9.8
	c0.2,5-1.8,9.8-5.5,13.1C187.2,97.5,180.5,99.3,171.7,99.3z M160.1,44.1L160.1,44.1L160,87.6l12.6,0.1h0.1c7.6,0,11.7-2.6,11.7-7.6
	c0-5.4-2.5-7.7-9.3-8.5c-4.3-0.6-6.5-2.8-6.5-6.6c0-3.5,2-5.4,6.6-6.3c1.7-0.1,3.3-0.8,4.6-2.1c1.2-1.3,1.8-3,1.7-4.7
	c0.1-2-0.6-4.1-1.9-5.6c-1.5-1.5-3.7-2.3-5.8-2.2H160.1z M226.8,99.3L226.8,99.3c-1.6,0-3.2-0.7-4.3-1.9c-1.2-1.5-1.9-3.3-1.8-5.3
	l0.1-19.1l-17.6-28.6c-1.1-1.5-1.6-3.3-1.6-5.1c0-1.5,0.7-3,1.8-4c1.2-1.1,2.8-1.6,4.5-1.6l0,0c2.4,0.1,4.5,1.5,5.4,3.7l13.7,23.1
	l13.9-23c0.9-2.2,3.1-3.7,5.5-3.7l0,0c1.6,0,3.2,0.6,4.5,1.6c1.2,1,1.8,2.5,1.8,4c0,1.8-0.6,3.6-1.7,5.1L233.1,73L233,92.1
	C233,96.5,230.5,99.3,226.8,99.3L226.8,99.3z M324.4,99.2h-0.1c-6.6,0.4-13-2.1-17.6-6.9c-4.1-4.6-6.3-11.5-6.2-20.5l0.1-30.7
	c-0.1-1.9,0.5-3.8,1.7-5.3c1.1-1.2,2.8-1.9,4.5-1.9l0,0c1.7-0.1,3.3,0.7,4.5,1.9c1.2,1.5,1.8,3.3,1.7,5.3L312.8,71
	c0,5.9,0.9,10.1,2.8,12.6c2.1,2.5,5.3,3.8,8.5,3.5h0.1c3.2,0.3,6.4-1,8.5-3.5c2-2.5,2.9-6.6,2.9-12.6l0.1-29.8
	c0-4.3,2.4-7.1,6.2-7.1l0,0c1.7-0.1,3.3,0.6,4.5,1.9c1.2,1.5,1.8,3.3,1.7,5.3L348.1,72c0,8.9-2.2,15.8-6.3,20.4
	C337.3,97.2,330.9,99.6,324.4,99.2z M266.6,99.1h-0.1c-5.8,0.2-11.3-2.1-15.2-6.4c-2.7-3-4.2-6.8-4.4-10.8c-0.1-1.7,0.6-3.3,1.7-4.5
	s2.8-1.9,4.5-1.8c0.2,0,0.4,0,0.6,0c3.3,0.3,4.3,2.7,5.2,5.2c1.2,3.1,2.4,6.3,7.9,6.3h0.2c2.5,0.2,5.1-0.9,6.7-2.9
	c1.6-2.6,2.4-5.6,2.1-8.7l0.1-34.5c0-4.5,2.3-7.1,6.2-7.1l0,0c3.8,0,6.2,2.8,6.1,7.2L288,75.4C287.9,90.9,280.5,99.1,266.6,99.1
	L266.6,99.1L266.6,99.1z M361.6,57L361.6,57c-1.7,0-3.2-0.9-4-2.5c-1-2.2-1.4-4.6-1.3-7.1v-4.9c0-5.6,2-8.4,6.4-8.5
	c1.8-0.1,3.6,0.6,4.8,1.8c1.1,1.4,1.6,3.2,1.5,4.9c-0.4,4.6-1.5,9-3.3,13.2C365.1,55.8,363.5,57,361.6,57z"/>
</svg>
